<mxfile host="Electron" agent="Mozilla/5.0 (Windows NT 10.0; Win64; x64) AppleWebKit/537.36 (KHTML, like Gecko) draw.io/26.0.4 Chrome/128.0.6613.186 Electron/32.2.5 Safari/537.36" version="26.0.4">
  <diagram name="Seite-1" id="jaLtOh2rslkZxp4Z_eWY">
    <mxGraphModel dx="3267" dy="2576" grid="1" gridSize="11" guides="1" tooltips="1" connect="1" arrows="1" fold="1" page="1" pageScale="1" pageWidth="827" pageHeight="1169" math="0" shadow="0">
      <root>
        <mxCell id="0" />
        <mxCell id="1" parent="0" />
        <mxCell id="_clOjf9mLVIMs-kXcxby-6" value="&lt;font style=&quot;color: rgb(255, 0, 128);&quot;&gt;&lt;font style=&quot;&quot;&gt;A &lt;/font&gt;Kunde           &lt;/font&gt;" style="swimlane;fontStyle=1;align=center;verticalAlign=top;childLayout=stackLayout;horizontal=1;startSize=40;horizontalStack=0;resizeParent=1;resizeParentMax=0;resizeLast=0;collapsible=1;marginBottom=0;whiteSpace=wrap;html=1;fontSize=14;labelBackgroundColor=none;fillColor=#dae8fc;strokeColor=#6c8ebf;" parent="1" vertex="1">
          <mxGeometry x="140" y="90" width="160" height="197" as="geometry">
            <mxRectangle x="200" y="120" width="80" height="30" as="alternateBounds" />
          </mxGeometry>
        </mxCell>
        <mxCell id="_clOjf9mLVIMs-kXcxby-7" value="&lt;div&gt;&amp;nbsp; - id: int&lt;/div&gt;&lt;div&gt;&amp;nbsp; - name: str&lt;/div&gt;&lt;div&gt;&amp;nbsp; - address: str&lt;/div&gt;&lt;div&gt;&amp;nbsp; - email: str&lt;/div&gt;&lt;div&gt;&amp;nbsp; - phone: str&lt;/div&gt;&lt;div&gt;&amp;nbsp; - password: str&lt;/div&gt;" style="text;strokeColor=none;fillColor=none;align=left;verticalAlign=top;spacingLeft=4;spacingRight=4;overflow=hidden;rotatable=0;points=[[0,0.5],[1,0.5]];portConstraint=eastwest;whiteSpace=wrap;html=1;fontSize=14;labelBackgroundColor=none;" parent="_clOjf9mLVIMs-kXcxby-6" vertex="1">
          <mxGeometry y="40" width="160" height="114" as="geometry" />
        </mxCell>
        <mxCell id="_clOjf9mLVIMs-kXcxby-8" value="" style="line;strokeWidth=1;fillColor=none;align=left;verticalAlign=middle;spacingTop=-1;spacingLeft=3;spacingRight=3;rotatable=0;labelPosition=right;points=[];portConstraint=eastwest;strokeColor=inherit;fontSize=14;labelBackgroundColor=none;" parent="_clOjf9mLVIMs-kXcxby-6" vertex="1">
          <mxGeometry y="154" width="160" height="8" as="geometry" />
        </mxCell>
        <mxCell id="_clOjf9mLVIMs-kXcxby-9" value="&lt;div&gt;&lt;span style=&quot;background-color: transparent; color: light-dark(rgb(0, 0, 0), rgb(255, 255, 255));&quot;&gt;&amp;nbsp; + __str__(): str&amp;nbsp;&amp;nbsp;&lt;/span&gt;&lt;br&gt;&lt;/div&gt;" style="text;strokeColor=none;fillColor=none;align=left;verticalAlign=top;spacingLeft=4;spacingRight=4;overflow=hidden;rotatable=0;points=[[0,0.5],[1,0.5]];portConstraint=eastwest;whiteSpace=wrap;html=1;fontSize=14;labelBackgroundColor=none;" parent="_clOjf9mLVIMs-kXcxby-6" vertex="1">
          <mxGeometry y="162" width="160" height="35" as="geometry" />
        </mxCell>
        <mxCell id="_clOjf9mLVIMs-kXcxby-10" value="&lt;span class=&quot;hljs-keyword&quot;&gt;&lt;font style=&quot;color: rgb(0, 0, 255);&quot;&gt;&amp;nbsp;&lt;font style=&quot;&quot;&gt;C&lt;/font&gt; Validator&lt;/font&gt;&lt;/span&gt;" style="swimlane;fontStyle=1;align=center;verticalAlign=top;childLayout=stackLayout;horizontal=1;startSize=40;horizontalStack=0;resizeParent=1;resizeParentMax=0;resizeLast=0;collapsible=1;marginBottom=0;whiteSpace=wrap;html=1;fontSize=14;labelBackgroundColor=none;fillColor=#d5e8d4;strokeColor=#82b366;" parent="1" vertex="1">
          <mxGeometry x="1166" y="100" width="198" height="154" as="geometry" />
        </mxCell>
        <mxCell id="_clOjf9mLVIMs-kXcxby-12" value="" style="line;strokeWidth=1;fillColor=none;align=left;verticalAlign=middle;spacingTop=-1;spacingLeft=3;spacingRight=3;rotatable=0;labelPosition=right;points=[];portConstraint=eastwest;strokeColor=inherit;fontSize=14;labelBackgroundColor=none;" parent="_clOjf9mLVIMs-kXcxby-10" vertex="1">
          <mxGeometry y="40" width="198" height="8" as="geometry" />
        </mxCell>
        <mxCell id="_clOjf9mLVIMs-kXcxby-13" value="&lt;div&gt;&amp;nbsp; + validate_name()&lt;/div&gt;&lt;div&gt;&amp;nbsp; + validate_email()&lt;/div&gt;&lt;div&gt;&amp;nbsp; + validate_phone()&lt;/div&gt;&lt;div&gt;&amp;nbsp; + validate_address()&lt;/div&gt;&lt;div&gt;&amp;nbsp; + validate_birthdate()&lt;/div&gt;" style="text;strokeColor=none;fillColor=none;align=left;verticalAlign=top;spacingLeft=4;spacingRight=4;overflow=hidden;rotatable=0;points=[[0,0.5],[1,0.5]];portConstraint=eastwest;whiteSpace=wrap;html=1;fontSize=14;labelBackgroundColor=none;" parent="_clOjf9mLVIMs-kXcxby-10" vertex="1">
          <mxGeometry y="48" width="198" height="106" as="geometry" />
        </mxCell>
        <mxCell id="_clOjf9mLVIMs-kXcxby-14" value="&lt;font style=&quot;color: rgb(0, 0, 255);&quot;&gt;&lt;font style=&quot;&quot;&gt;C &lt;/font&gt;Privatkunde&lt;/font&gt;" style="swimlane;fontStyle=1;align=center;verticalAlign=top;childLayout=stackLayout;horizontal=1;startSize=30;horizontalStack=0;resizeParent=1;resizeParentMax=0;resizeLast=0;collapsible=1;marginBottom=0;whiteSpace=wrap;html=1;fontSize=14;labelBackgroundColor=none;fillColor=#d5e8d4;strokeColor=#82b366;" parent="1" vertex="1">
          <mxGeometry x="132" y="494" width="150" height="114" as="geometry" />
        </mxCell>
        <mxCell id="_clOjf9mLVIMs-kXcxby-15" value="&lt;div&gt;&amp;nbsp; - birthdate: str&lt;br&gt;&lt;/div&gt;" style="text;strokeColor=none;fillColor=none;align=left;verticalAlign=top;spacingLeft=4;spacingRight=4;overflow=hidden;rotatable=0;points=[[0,0.5],[1,0.5]];portConstraint=eastwest;whiteSpace=wrap;html=1;fontSize=14;labelBackgroundColor=none;" parent="_clOjf9mLVIMs-kXcxby-14" vertex="1">
          <mxGeometry y="30" width="150" height="26" as="geometry" />
        </mxCell>
        <mxCell id="_clOjf9mLVIMs-kXcxby-16" value="" style="line;strokeWidth=1;fillColor=none;align=left;verticalAlign=middle;spacingTop=-1;spacingLeft=3;spacingRight=3;rotatable=0;labelPosition=right;points=[];portConstraint=eastwest;strokeColor=inherit;fontSize=14;labelBackgroundColor=none;" parent="_clOjf9mLVIMs-kXcxby-14" vertex="1">
          <mxGeometry y="56" width="150" height="8" as="geometry" />
        </mxCell>
        <mxCell id="_clOjf9mLVIMs-kXcxby-17" value="&lt;div&gt;+ __init__()&lt;/div&gt;&lt;div&gt;&amp;nbsp; + calculate_age(): int&lt;br&gt;&lt;/div&gt;" style="text;strokeColor=none;fillColor=none;align=left;verticalAlign=top;spacingLeft=4;spacingRight=4;overflow=hidden;rotatable=0;points=[[0,0.5],[1,0.5]];portConstraint=eastwest;whiteSpace=wrap;html=1;fontSize=14;labelBackgroundColor=none;" parent="_clOjf9mLVIMs-kXcxby-14" vertex="1">
          <mxGeometry y="64" width="150" height="50" as="geometry" />
        </mxCell>
        <mxCell id="_clOjf9mLVIMs-kXcxby-27" value="&lt;div&gt;&lt;div&gt;erbt von Kunde&lt;/div&gt;&lt;/div&gt;" style="endArrow=block;endSize=16;endFill=0;html=1;rounded=0;align=center;verticalAlign=middle;fontFamily=Helvetica;fontSize=14;fontColor=default;labelBackgroundColor=none;entryX=0.443;entryY=1.037;entryDx=0;entryDy=0;entryPerimeter=0;exitX=0.5;exitY=0;exitDx=0;exitDy=0;" parent="1" edge="1" target="_clOjf9mLVIMs-kXcxby-9" source="_clOjf9mLVIMs-kXcxby-14">
          <mxGeometry x="-0.0012" width="160" relative="1" as="geometry">
            <mxPoint x="922.92" y="430" as="sourcePoint" />
            <mxPoint x="819.9999999999999" y="587.1" as="targetPoint" />
            <mxPoint as="offset" />
          </mxGeometry>
        </mxCell>
        <mxCell id="_clOjf9mLVIMs-kXcxby-29" value="&lt;div&gt;&lt;font style=&quot;color: rgb(0, 0, 255);&quot;&gt;&lt;font style=&quot;&quot;&gt;C &lt;/font&gt;Firmenkunde&lt;/font&gt;&lt;br&gt;&lt;/div&gt;" style="swimlane;fontStyle=1;align=center;verticalAlign=top;childLayout=stackLayout;horizontal=1;startSize=30;horizontalStack=0;resizeParent=1;resizeParentMax=0;resizeLast=0;collapsible=1;marginBottom=0;whiteSpace=wrap;html=1;fontFamily=Helvetica;fontSize=14;labelBackgroundColor=none;fillColor=#d5e8d4;strokeColor=#82b366;" parent="1" vertex="1">
          <mxGeometry x="-88" y="494" width="180" height="60" as="geometry" />
        </mxCell>
        <mxCell id="_clOjf9mLVIMs-kXcxby-30" value="&lt;div&gt;&amp;nbsp; - company_number: str&lt;br&gt;&lt;/div&gt;" style="text;strokeColor=none;fillColor=none;align=left;verticalAlign=top;spacingLeft=4;spacingRight=4;overflow=hidden;rotatable=0;points=[[0,0.5],[1,0.5]];portConstraint=eastwest;whiteSpace=wrap;html=1;fontFamily=Helvetica;fontSize=14;fontColor=default;labelBackgroundColor=none;" parent="_clOjf9mLVIMs-kXcxby-29" vertex="1">
          <mxGeometry y="30" width="180" height="22" as="geometry" />
        </mxCell>
        <mxCell id="_clOjf9mLVIMs-kXcxby-31" value="" style="line;strokeWidth=1;fillColor=none;align=left;verticalAlign=middle;spacingTop=-1;spacingLeft=3;spacingRight=3;rotatable=0;labelPosition=right;points=[];portConstraint=eastwest;strokeColor=inherit;fontFamily=Helvetica;fontSize=14;fontColor=default;labelBackgroundColor=none;" parent="_clOjf9mLVIMs-kXcxby-29" vertex="1">
          <mxGeometry y="52" width="180" height="8" as="geometry" />
        </mxCell>
        <mxCell id="_clOjf9mLVIMs-kXcxby-33" value="&lt;div&gt;erbt von Kunde&lt;/div&gt;" style="endArrow=block;endSize=16;endFill=0;html=1;rounded=0;align=center;verticalAlign=middle;fontFamily=Helvetica;fontSize=14;fontColor=default;labelBackgroundColor=none;exitX=0.5;exitY=0;exitDx=0;exitDy=0;entryX=-0.021;entryY=0.802;entryDx=0;entryDy=0;entryPerimeter=0;" parent="1" source="_clOjf9mLVIMs-kXcxby-29" target="_clOjf9mLVIMs-kXcxby-9" edge="1">
          <mxGeometry x="0.0053" width="160" relative="1" as="geometry">
            <mxPoint x="180" y="230" as="sourcePoint" />
            <mxPoint x="340" y="230" as="targetPoint" />
            <mxPoint as="offset" />
          </mxGeometry>
        </mxCell>
        <mxCell id="6a3v4NWOryUX1H5BJ2pP-5" value="&lt;font style=&quot;color: rgb(255, 0, 128);&quot;&gt;&lt;font&gt;A &lt;/font&gt;Produkt&amp;nbsp; &amp;nbsp; &amp;nbsp; &amp;nbsp; &amp;nbsp; &amp;nbsp;&lt;/font&gt;" style="swimlane;fontStyle=1;align=center;verticalAlign=top;childLayout=stackLayout;horizontal=1;startSize=30;horizontalStack=0;resizeParent=1;resizeParentMax=0;resizeLast=0;collapsible=1;marginBottom=0;whiteSpace=wrap;html=1;fontSize=14;labelBackgroundColor=none;fillColor=#dae8fc;strokeColor=#6c8ebf;" parent="1" vertex="1">
          <mxGeometry x="370" y="280" width="190" height="202" as="geometry" />
        </mxCell>
        <mxCell id="6a3v4NWOryUX1H5BJ2pP-6" value="&lt;div&gt;&amp;nbsp; - id: int&lt;/div&gt;&lt;div&gt;&amp;nbsp; - name: str&lt;/div&gt;&lt;div&gt;&amp;nbsp; - price: float&lt;/div&gt;&lt;div&gt;&amp;nbsp; - weight: float&lt;/div&gt;&lt;div&gt;&amp;nbsp; - reviews: list&lt;/div&gt;" style="text;strokeColor=none;fillColor=none;align=left;verticalAlign=top;spacingLeft=4;spacingRight=4;overflow=hidden;rotatable=0;points=[[0,0.5],[1,0.5]];portConstraint=eastwest;whiteSpace=wrap;html=1;fontSize=14;labelBackgroundColor=none;" parent="6a3v4NWOryUX1H5BJ2pP-5" vertex="1">
          <mxGeometry y="30" width="190" height="102" as="geometry" />
        </mxCell>
        <mxCell id="6a3v4NWOryUX1H5BJ2pP-7" value="" style="line;strokeWidth=1;fillColor=none;align=left;verticalAlign=middle;spacingTop=-1;spacingLeft=3;spacingRight=3;rotatable=0;labelPosition=right;points=[];portConstraint=eastwest;strokeColor=inherit;fontSize=14;labelBackgroundColor=none;" parent="6a3v4NWOryUX1H5BJ2pP-5" vertex="1">
          <mxGeometry y="132" width="190" height="8" as="geometry" />
        </mxCell>
        <mxCell id="6a3v4NWOryUX1H5BJ2pP-8" value="&lt;div&gt;&lt;div&gt;&amp;nbsp; + add_review(rating: int)&lt;/div&gt;&lt;div&gt;&amp;nbsp; + average_rating(): float&lt;/div&gt;&lt;div&gt;&amp;nbsp; + __str__(): str&lt;/div&gt;&lt;/div&gt;" style="text;strokeColor=none;fillColor=none;align=left;verticalAlign=top;spacingLeft=4;spacingRight=4;overflow=hidden;rotatable=0;points=[[0,0.5],[1,0.5]];portConstraint=eastwest;whiteSpace=wrap;html=1;fontSize=14;labelBackgroundColor=none;" parent="6a3v4NWOryUX1H5BJ2pP-5" vertex="1">
          <mxGeometry y="140" width="190" height="62" as="geometry" />
        </mxCell>
        <mxCell id="6a3v4NWOryUX1H5BJ2pP-9" value="&lt;font style=&quot;color: rgb(0, 0, 255);&quot;&gt;&amp;nbsp; &amp;nbsp; &amp;nbsp; &amp;nbsp; &amp;nbsp; &amp;nbsp; &lt;font&gt;C &lt;/font&gt;Elektronik&amp;nbsp; &amp;nbsp; &amp;nbsp; &amp;nbsp; &amp;nbsp; &amp;nbsp; &amp;nbsp; &amp;nbsp;&amp;nbsp;&lt;/font&gt;" style="swimlane;fontStyle=1;align=center;verticalAlign=top;childLayout=stackLayout;horizontal=1;startSize=30;horizontalStack=0;resizeParent=1;resizeParentMax=0;resizeLast=0;collapsible=1;marginBottom=0;whiteSpace=wrap;html=1;fontSize=14;labelBackgroundColor=none;fillColor=#d5e8d4;strokeColor=#82b366;" parent="1" vertex="1">
          <mxGeometry x="667" y="620" width="160" height="102" as="geometry" />
        </mxCell>
        <mxCell id="6a3v4NWOryUX1H5BJ2pP-10" value="&lt;div&gt;&lt;div&gt;&amp;nbsp; - brand: str&lt;/div&gt;&lt;div&gt;&amp;nbsp; - warranty_years: int&lt;/div&gt;&lt;/div&gt;" style="text;strokeColor=none;fillColor=none;align=left;verticalAlign=top;spacingLeft=4;spacingRight=4;overflow=hidden;rotatable=0;points=[[0,0.5],[1,0.5]];portConstraint=eastwest;whiteSpace=wrap;html=1;fontSize=14;labelBackgroundColor=none;" parent="6a3v4NWOryUX1H5BJ2pP-9" vertex="1">
          <mxGeometry y="30" width="160" height="64" as="geometry" />
        </mxCell>
        <mxCell id="6a3v4NWOryUX1H5BJ2pP-11" value="" style="line;strokeWidth=1;fillColor=none;align=left;verticalAlign=middle;spacingTop=-1;spacingLeft=3;spacingRight=3;rotatable=0;labelPosition=right;points=[];portConstraint=eastwest;strokeColor=inherit;fontSize=14;labelBackgroundColor=none;" parent="6a3v4NWOryUX1H5BJ2pP-9" vertex="1">
          <mxGeometry y="94" width="160" height="8" as="geometry" />
        </mxCell>
        <mxCell id="6a3v4NWOryUX1H5BJ2pP-13" value="&lt;font style=&quot;color: rgb(0, 0, 255);&quot;&gt;&amp;nbsp; &amp;nbsp; &amp;nbsp; &amp;nbsp; &amp;nbsp; &amp;nbsp; &amp;nbsp; &lt;font&gt;C &lt;/font&gt;Kleidung&amp;nbsp; &amp;nbsp; &amp;nbsp; &amp;nbsp; &amp;nbsp; &amp;nbsp; &amp;nbsp; &amp;nbsp; &amp;nbsp;&amp;nbsp;&lt;/font&gt;" style="swimlane;fontStyle=1;align=center;verticalAlign=top;childLayout=stackLayout;horizontal=1;startSize=30;horizontalStack=0;resizeParent=1;resizeParentMax=0;resizeLast=0;collapsible=1;marginBottom=0;whiteSpace=wrap;html=1;fontSize=14;labelBackgroundColor=none;fillColor=#d5e8d4;strokeColor=#82b366;" parent="1" vertex="1">
          <mxGeometry x="497" y="620" width="160" height="102" as="geometry" />
        </mxCell>
        <mxCell id="6a3v4NWOryUX1H5BJ2pP-14" value="&lt;div&gt;&lt;div&gt;&amp;nbsp; - size: str&lt;/div&gt;&lt;div&gt;&amp;nbsp; - color: str&lt;/div&gt;&lt;/div&gt;" style="text;strokeColor=none;fillColor=none;align=left;verticalAlign=top;spacingLeft=4;spacingRight=4;overflow=hidden;rotatable=0;points=[[0,0.5],[1,0.5]];portConstraint=eastwest;whiteSpace=wrap;html=1;fontSize=14;labelBackgroundColor=none;" parent="6a3v4NWOryUX1H5BJ2pP-13" vertex="1">
          <mxGeometry y="30" width="160" height="64" as="geometry" />
        </mxCell>
        <mxCell id="6a3v4NWOryUX1H5BJ2pP-15" value="" style="line;strokeWidth=1;fillColor=none;align=left;verticalAlign=middle;spacingTop=-1;spacingLeft=3;spacingRight=3;rotatable=0;labelPosition=right;points=[];portConstraint=eastwest;strokeColor=inherit;fontSize=14;labelBackgroundColor=none;" parent="6a3v4NWOryUX1H5BJ2pP-13" vertex="1">
          <mxGeometry y="94" width="160" height="8" as="geometry" />
        </mxCell>
        <mxCell id="6a3v4NWOryUX1H5BJ2pP-17" value="&lt;font style=&quot;color: rgb(0, 0, 255);&quot;&gt;&amp;nbsp; &amp;nbsp; &amp;nbsp; &amp;nbsp; &amp;nbsp; &amp;nbsp; &amp;nbsp; &lt;font&gt;C&amp;nbsp; &lt;/font&gt;Buch&amp;nbsp; &amp;nbsp; &amp;nbsp; &amp;nbsp; &amp;nbsp; &amp;nbsp; &amp;nbsp; &amp;nbsp; &amp;nbsp; &amp;nbsp; &amp;nbsp;&amp;nbsp;&lt;/font&gt;" style="swimlane;fontStyle=1;align=center;verticalAlign=top;childLayout=stackLayout;horizontal=1;startSize=30;horizontalStack=0;resizeParent=1;resizeParentMax=0;resizeLast=0;collapsible=1;marginBottom=0;whiteSpace=wrap;html=1;fontSize=14;labelBackgroundColor=none;fillColor=#d5e8d4;strokeColor=#82b366;" parent="1" vertex="1">
          <mxGeometry x="317" y="620" width="160" height="102" as="geometry" />
        </mxCell>
        <mxCell id="6a3v4NWOryUX1H5BJ2pP-19" value="" style="line;strokeWidth=1;fillColor=none;align=left;verticalAlign=middle;spacingTop=-1;spacingLeft=3;spacingRight=3;rotatable=0;labelPosition=right;points=[];portConstraint=eastwest;strokeColor=inherit;fontSize=14;labelBackgroundColor=none;" parent="6a3v4NWOryUX1H5BJ2pP-17" vertex="1">
          <mxGeometry y="30" width="160" height="8" as="geometry" />
        </mxCell>
        <mxCell id="6a3v4NWOryUX1H5BJ2pP-18" value="&lt;div&gt;&lt;div&gt;&amp;nbsp; - author: str&lt;/div&gt;&lt;div&gt;&amp;nbsp; - pages_count: int&lt;/div&gt;&lt;/div&gt;" style="text;strokeColor=none;fillColor=none;align=left;verticalAlign=top;spacingLeft=4;spacingRight=4;overflow=hidden;rotatable=0;points=[[0,0.5],[1,0.5]];portConstraint=eastwest;whiteSpace=wrap;html=1;fontSize=14;labelBackgroundColor=none;" parent="6a3v4NWOryUX1H5BJ2pP-17" vertex="1">
          <mxGeometry y="38" width="160" height="64" as="geometry" />
        </mxCell>
        <mxCell id="6a3v4NWOryUX1H5BJ2pP-22" value="&lt;div&gt;erbt von Produkt&lt;/div&gt;" style="endArrow=block;endSize=16;endFill=0;html=1;rounded=0;align=center;verticalAlign=middle;fontFamily=Helvetica;fontSize=14;fontColor=default;labelBackgroundColor=none;entryX=0.976;entryY=0.945;entryDx=0;entryDy=0;entryPerimeter=0;exitX=0.5;exitY=0;exitDx=0;exitDy=0;" parent="1" target="6a3v4NWOryUX1H5BJ2pP-8" edge="1" source="6a3v4NWOryUX1H5BJ2pP-9">
          <mxGeometry x="0.0053" width="160" relative="1" as="geometry">
            <mxPoint x="730" y="600" as="sourcePoint" />
            <mxPoint x="625.8199999999999" y="490" as="targetPoint" />
            <mxPoint as="offset" />
          </mxGeometry>
        </mxCell>
        <mxCell id="6a3v4NWOryUX1H5BJ2pP-23" value="&lt;div&gt;erbt von Produkt&lt;/div&gt;" style="endArrow=block;endSize=16;endFill=0;html=1;rounded=0;align=center;verticalAlign=middle;fontFamily=Helvetica;fontSize=14;fontColor=default;labelBackgroundColor=none;entryX=0.436;entryY=1.066;entryDx=0;entryDy=0;entryPerimeter=0;" parent="1" target="6a3v4NWOryUX1H5BJ2pP-8" edge="1">
          <mxGeometry x="0.0053" width="160" relative="1" as="geometry">
            <mxPoint x="560" y="610" as="sourcePoint" />
            <mxPoint x="520" y="490.0000000000002" as="targetPoint" />
            <mxPoint as="offset" />
          </mxGeometry>
        </mxCell>
        <mxCell id="rJgk5nFSb8xyKTiPC_Zn-8" value="" style="endArrow=block;endSize=16;endFill=0;html=1;rounded=0;entryX=0.781;entryY=-0.039;entryDx=0;entryDy=0;entryPerimeter=0;fontSize=14;labelBackgroundColor=none;" parent="1" target="gWbtYYOCCa37OpY_L-de-12" edge="1">
          <mxGeometry x="-0.0018" width="160" relative="1" as="geometry">
            <mxPoint x="1188" y="407" as="sourcePoint" />
            <mxPoint x="1000.0000000000002" y="201.9960000000001" as="targetPoint" />
            <mxPoint as="offset" />
          </mxGeometry>
        </mxCell>
        <mxCell id="gWbtYYOCCa37OpY_L-de-31" value="erbt von DatenbankFehler" style="edgeLabel;html=1;align=center;verticalAlign=middle;resizable=0;points=[];fontSize=14;labelBackgroundColor=none;" vertex="1" connectable="0" parent="rJgk5nFSb8xyKTiPC_Zn-8">
          <mxGeometry x="0.0879" y="2" relative="1" as="geometry">
            <mxPoint as="offset" />
          </mxGeometry>
        </mxCell>
        <mxCell id="gWbtYYOCCa37OpY_L-de-1" value="&lt;font style=&quot;color: rgb(0, 0, 255);&quot;&gt;&amp;nbsp;&lt;font&gt;C &lt;/font&gt;Storage&lt;/font&gt;" style="swimlane;fontStyle=1;align=center;verticalAlign=top;childLayout=stackLayout;horizontal=1;startSize=40;horizontalStack=0;resizeParent=1;resizeParentMax=0;resizeLast=0;collapsible=1;marginBottom=0;whiteSpace=wrap;html=1;fontSize=14;labelBackgroundColor=none;fillColor=#d5e8d4;strokeColor=#82b366;" vertex="1" parent="1">
          <mxGeometry x="420" y="-240" width="200" height="264" as="geometry" />
        </mxCell>
        <mxCell id="gWbtYYOCCa37OpY_L-de-3" value="" style="line;strokeWidth=1;fillColor=none;align=left;verticalAlign=middle;spacingTop=-1;spacingLeft=3;spacingRight=3;rotatable=0;labelPosition=right;points=[];portConstraint=eastwest;strokeColor=inherit;fontSize=14;labelBackgroundColor=none;" vertex="1" parent="gWbtYYOCCa37OpY_L-de-1">
          <mxGeometry y="40" width="200" height="8" as="geometry" />
        </mxCell>
        <mxCell id="gWbtYYOCCa37OpY_L-de-4" value="&lt;div&gt;&amp;nbsp; + connect()&lt;/div&gt;&lt;div&gt;&amp;nbsp; + create_tables()&lt;/div&gt;&lt;div&gt;&amp;nbsp; + save_customer()&lt;/div&gt;&lt;div&gt;&amp;nbsp; + load_all_customers()&lt;/div&gt;&lt;div&gt;&amp;nbsp; + delete_customer()&lt;/div&gt;&lt;div&gt;&amp;nbsp; + save_product()&lt;/div&gt;&lt;div&gt;&amp;nbsp; + load_all_products()&lt;/div&gt;&lt;div&gt;&amp;nbsp; + load_product_with_rating()&lt;/div&gt;&lt;div&gt;&amp;nbsp; + add_review_to_product()&lt;/div&gt;&lt;div&gt;&amp;nbsp; + delete_product()&lt;/div&gt;" style="text;strokeColor=none;fillColor=none;align=left;verticalAlign=top;spacingLeft=4;spacingRight=4;overflow=hidden;rotatable=0;points=[[0,0.5],[1,0.5]];portConstraint=eastwest;whiteSpace=wrap;html=1;fontSize=14;labelBackgroundColor=none;" vertex="1" parent="gWbtYYOCCa37OpY_L-de-1">
          <mxGeometry y="48" width="200" height="216" as="geometry" />
        </mxCell>
        <mxCell id="gWbtYYOCCa37OpY_L-de-10" value="&lt;font style=&quot;color: rgb(0, 0, 255);&quot;&gt;&lt;font&gt;C &lt;/font&gt;DatenbankFehler&lt;/font&gt;" style="swimlane;fontStyle=1;align=center;verticalAlign=top;childLayout=stackLayout;horizontal=1;startSize=30;horizontalStack=0;resizeParent=1;resizeParentMax=0;resizeLast=0;collapsible=1;marginBottom=0;whiteSpace=wrap;html=1;fontSize=14;labelBackgroundColor=none;fillColor=#d5e8d4;strokeColor=#82b366;" vertex="1" parent="1">
          <mxGeometry x="870" y="110" width="160" height="36" as="geometry" />
        </mxCell>
        <mxCell id="gWbtYYOCCa37OpY_L-de-12" value="" style="line;strokeWidth=1;fillColor=none;align=left;verticalAlign=middle;spacingTop=-1;spacingLeft=3;spacingRight=3;rotatable=0;labelPosition=right;points=[];portConstraint=eastwest;strokeColor=inherit;fontSize=14;labelBackgroundColor=none;" vertex="1" parent="gWbtYYOCCa37OpY_L-de-10">
          <mxGeometry y="30" width="160" height="6" as="geometry" />
        </mxCell>
        <mxCell id="gWbtYYOCCa37OpY_L-de-14" style="edgeStyle=orthogonalEdgeStyle;rounded=0;orthogonalLoop=1;jettySize=auto;html=1;entryX=0.577;entryY=0.006;entryDx=0;entryDy=0;entryPerimeter=0;fontSize=14;labelBackgroundColor=none;" edge="1" parent="1" source="gWbtYYOCCa37OpY_L-de-4" target="_clOjf9mLVIMs-kXcxby-6">
          <mxGeometry relative="1" as="geometry" />
        </mxCell>
        <mxCell id="gWbtYYOCCa37OpY_L-de-45" style="edgeStyle=orthogonalEdgeStyle;rounded=0;orthogonalLoop=1;jettySize=auto;html=1;entryX=0.719;entryY=0.008;entryDx=0;entryDy=0;entryPerimeter=0;" edge="1" parent="1" source="gWbtYYOCCa37OpY_L-de-15" target="6a3v4NWOryUX1H5BJ2pP-5">
          <mxGeometry relative="1" as="geometry">
            <mxPoint x="506" y="275" as="targetPoint" />
            <Array as="points">
              <mxPoint x="690" y="242" />
              <mxPoint x="507" y="242" />
            </Array>
          </mxGeometry>
        </mxCell>
        <mxCell id="gWbtYYOCCa37OpY_L-de-15" value="&lt;font style=&quot;color: rgb(0, 0, 255);&quot;&gt;&lt;font&gt;C &lt;/font&gt;Bewertung&lt;/font&gt;" style="swimlane;fontStyle=1;align=center;verticalAlign=top;childLayout=stackLayout;horizontal=1;startSize=40;horizontalStack=0;resizeParent=1;resizeParentMax=0;resizeLast=0;collapsible=1;marginBottom=0;whiteSpace=wrap;html=1;fontSize=14;labelBackgroundColor=none;fillColor=#d5e8d4;strokeColor=#82b366;" vertex="1" parent="1">
          <mxGeometry x="610" y="100" width="160" height="118" as="geometry" />
        </mxCell>
        <mxCell id="gWbtYYOCCa37OpY_L-de-16" value="- id: int&lt;div&gt;-produkt_id: int&lt;/div&gt;&lt;div&gt;rating: int&lt;/div&gt;&lt;div&gt;&lt;br&gt;&lt;/div&gt;" style="text;strokeColor=none;fillColor=none;align=left;verticalAlign=top;spacingLeft=4;spacingRight=4;overflow=hidden;rotatable=0;points=[[0,0.5],[1,0.5]];portConstraint=eastwest;whiteSpace=wrap;html=1;fontSize=14;labelBackgroundColor=none;" vertex="1" parent="gWbtYYOCCa37OpY_L-de-15">
          <mxGeometry y="40" width="160" height="70" as="geometry" />
        </mxCell>
        <mxCell id="gWbtYYOCCa37OpY_L-de-17" value="" style="line;strokeWidth=1;fillColor=none;align=left;verticalAlign=middle;spacingTop=-1;spacingLeft=3;spacingRight=3;rotatable=0;labelPosition=right;points=[];portConstraint=eastwest;strokeColor=inherit;fontSize=14;labelBackgroundColor=none;" vertex="1" parent="gWbtYYOCCa37OpY_L-de-15">
          <mxGeometry y="110" width="160" height="8" as="geometry" />
        </mxCell>
        <mxCell id="gWbtYYOCCa37OpY_L-de-22" value="&lt;font style=&quot;color: rgb(0, 0, 255);&quot;&gt;&lt;font&gt;C&lt;/font&gt; VerbindungsFehler&lt;/font&gt;" style="swimlane;fontStyle=1;align=center;verticalAlign=top;childLayout=stackLayout;horizontal=1;startSize=30;horizontalStack=0;resizeParent=1;resizeParentMax=0;resizeLast=0;collapsible=1;marginBottom=0;whiteSpace=wrap;html=1;fontSize=14;labelBackgroundColor=none;fillColor=#d5e8d4;strokeColor=#82b366;" vertex="1" parent="1">
          <mxGeometry x="671" y="416" width="179" height="38" as="geometry" />
        </mxCell>
        <mxCell id="gWbtYYOCCa37OpY_L-de-24" value="" style="line;strokeWidth=1;fillColor=none;align=left;verticalAlign=middle;spacingTop=-1;spacingLeft=3;spacingRight=3;rotatable=0;labelPosition=right;points=[];portConstraint=eastwest;strokeColor=inherit;fontSize=14;labelBackgroundColor=none;" vertex="1" parent="gWbtYYOCCa37OpY_L-de-22">
          <mxGeometry y="30" width="179" height="8" as="geometry" />
        </mxCell>
        <mxCell id="gWbtYYOCCa37OpY_L-de-26" value="&lt;font style=&quot;color: rgb(0, 0, 255);&quot;&gt;&lt;font&gt;C&lt;/font&gt;&amp;nbsp;SpeicherFehler&lt;/font&gt;" style="swimlane;fontStyle=1;align=center;verticalAlign=top;childLayout=stackLayout;horizontal=1;startSize=30;horizontalStack=0;resizeParent=1;resizeParentMax=0;resizeLast=0;collapsible=1;marginBottom=0;whiteSpace=wrap;html=1;fontSize=14;labelBackgroundColor=none;fillColor=#d5e8d4;strokeColor=#82b366;" vertex="1" parent="1">
          <mxGeometry x="913" y="416" width="172" height="38" as="geometry" />
        </mxCell>
        <mxCell id="gWbtYYOCCa37OpY_L-de-27" value="" style="line;strokeWidth=1;fillColor=none;align=left;verticalAlign=middle;spacingTop=-1;spacingLeft=3;spacingRight=3;rotatable=0;labelPosition=right;points=[];portConstraint=eastwest;strokeColor=inherit;fontSize=14;labelBackgroundColor=none;" vertex="1" parent="gWbtYYOCCa37OpY_L-de-26">
          <mxGeometry y="30" width="172" height="8" as="geometry" />
        </mxCell>
        <mxCell id="gWbtYYOCCa37OpY_L-de-28" value="&lt;font style=&quot;color: rgb(0, 0, 255);&quot;&gt;&lt;font&gt;C&lt;/font&gt;&amp;nbsp;NichtGefundenFehler&lt;/font&gt;" style="swimlane;fontStyle=1;align=center;verticalAlign=top;childLayout=stackLayout;horizontal=1;startSize=30;horizontalStack=0;resizeParent=1;resizeParentMax=0;resizeLast=0;collapsible=1;marginBottom=0;whiteSpace=wrap;html=1;fontSize=14;labelBackgroundColor=none;fillColor=#d5e8d4;strokeColor=#82b366;" vertex="1" parent="1">
          <mxGeometry x="1122" y="416" width="171" height="38" as="geometry" />
        </mxCell>
        <mxCell id="gWbtYYOCCa37OpY_L-de-29" value="" style="line;strokeWidth=1;fillColor=none;align=left;verticalAlign=middle;spacingTop=-1;spacingLeft=3;spacingRight=3;rotatable=0;labelPosition=right;points=[];portConstraint=eastwest;strokeColor=inherit;fontSize=14;labelBackgroundColor=none;" vertex="1" parent="gWbtYYOCCa37OpY_L-de-28">
          <mxGeometry y="30" width="171" height="8" as="geometry" />
        </mxCell>
        <mxCell id="6a3v4NWOryUX1H5BJ2pP-21" value="&lt;div&gt;erbt von Produkt&lt;/div&gt;" style="endArrow=block;endSize=16;endFill=0;html=1;rounded=0;align=center;verticalAlign=middle;fontFamily=Helvetica;fontSize=14;fontColor=default;labelBackgroundColor=none;entryX=0.074;entryY=1.051;entryDx=0;entryDy=0;entryPerimeter=0;exitX=0.5;exitY=0;exitDx=0;exitDy=0;" parent="1" target="6a3v4NWOryUX1H5BJ2pP-8" edge="1">
          <mxGeometry x="0.0053" width="160" relative="1" as="geometry">
            <mxPoint x="370" y="620" as="sourcePoint" />
            <mxPoint x="430" y="499.9999999999999" as="targetPoint" />
            <mxPoint as="offset" />
          </mxGeometry>
        </mxCell>
        <mxCell id="gWbtYYOCCa37OpY_L-de-32" value="" style="endArrow=block;endSize=16;endFill=0;html=1;rounded=0;entryX=0.069;entryY=1.059;entryDx=0;entryDy=0;entryPerimeter=0;fontSize=14;labelBackgroundColor=none;exitX=0.43;exitY=0.053;exitDx=0;exitDy=0;exitPerimeter=0;" edge="1" parent="1" source="gWbtYYOCCa37OpY_L-de-22" target="gWbtYYOCCa37OpY_L-de-12">
          <mxGeometry x="-0.0018" width="160" relative="1" as="geometry">
            <mxPoint x="770" y="407" as="sourcePoint" />
            <mxPoint x="730" y="156.02" as="targetPoint" />
            <mxPoint as="offset" />
          </mxGeometry>
        </mxCell>
        <mxCell id="gWbtYYOCCa37OpY_L-de-33" value="erbt von DatenbankFehler" style="edgeLabel;html=1;align=center;verticalAlign=middle;resizable=0;points=[];fontSize=14;labelBackgroundColor=none;" vertex="1" connectable="0" parent="gWbtYYOCCa37OpY_L-de-32">
          <mxGeometry x="0.0879" y="2" relative="1" as="geometry">
            <mxPoint as="offset" />
          </mxGeometry>
        </mxCell>
        <mxCell id="gWbtYYOCCa37OpY_L-de-34" value="" style="endArrow=block;endSize=16;endFill=0;html=1;rounded=0;entryX=0.813;entryY=1.667;entryDx=0;entryDy=0;entryPerimeter=0;fontSize=14;labelBackgroundColor=none;exitX=0.461;exitY=-0.055;exitDx=0;exitDy=0;exitPerimeter=0;" edge="1" parent="1" source="gWbtYYOCCa37OpY_L-de-26">
          <mxGeometry x="-0.0018" width="160" relative="1" as="geometry">
            <mxPoint x="957" y="407" as="sourcePoint" />
            <mxPoint x="943.04" y="146" as="targetPoint" />
            <mxPoint as="offset" />
            <Array as="points" />
          </mxGeometry>
        </mxCell>
        <mxCell id="gWbtYYOCCa37OpY_L-de-37" value="erbt von DatenbankFehler" style="edgeLabel;html=1;align=center;verticalAlign=middle;resizable=0;points=[];fontSize=14;labelBackgroundColor=none;" vertex="1" connectable="0" parent="gWbtYYOCCa37OpY_L-de-34">
          <mxGeometry x="-0.5803" relative="1" as="geometry">
            <mxPoint as="offset" />
          </mxGeometry>
        </mxCell>
        <mxCell id="gWbtYYOCCa37OpY_L-de-41" style="edgeStyle=orthogonalEdgeStyle;rounded=0;orthogonalLoop=1;jettySize=auto;html=1;entryX=0.5;entryY=0;entryDx=0;entryDy=0;fontSize=14;labelBackgroundColor=none;" edge="1" parent="1" source="gWbtYYOCCa37OpY_L-de-4" target="gWbtYYOCCa37OpY_L-de-15">
          <mxGeometry relative="1" as="geometry" />
        </mxCell>
        <mxCell id="gWbtYYOCCa37OpY_L-de-40" style="edgeStyle=orthogonalEdgeStyle;rounded=0;orthogonalLoop=1;jettySize=auto;html=1;entryX=0.406;entryY=-0.009;entryDx=0;entryDy=0;entryPerimeter=0;fontSize=14;labelBackgroundColor=none;" edge="1" parent="1" source="gWbtYYOCCa37OpY_L-de-4" target="gWbtYYOCCa37OpY_L-de-10">
          <mxGeometry relative="1" as="geometry">
            <mxPoint x="940" y="100" as="targetPoint" />
          </mxGeometry>
        </mxCell>
        <mxCell id="gWbtYYOCCa37OpY_L-de-39" style="edgeStyle=orthogonalEdgeStyle;rounded=0;orthogonalLoop=1;jettySize=auto;html=1;entryX=0.5;entryY=0;entryDx=0;entryDy=0;fontSize=14;labelBackgroundColor=none;" edge="1" parent="1" source="gWbtYYOCCa37OpY_L-de-4" target="_clOjf9mLVIMs-kXcxby-10">
          <mxGeometry relative="1" as="geometry">
            <mxPoint x="1180" y="90" as="targetPoint" />
          </mxGeometry>
        </mxCell>
        <mxCell id="gWbtYYOCCa37OpY_L-de-42" style="edgeStyle=orthogonalEdgeStyle;rounded=0;orthogonalLoop=1;jettySize=auto;html=1;entryX=0.412;entryY=0.009;entryDx=0;entryDy=0;entryPerimeter=0;fontSize=14;labelBackgroundColor=none;" edge="1" parent="1" source="gWbtYYOCCa37OpY_L-de-4" target="6a3v4NWOryUX1H5BJ2pP-5">
          <mxGeometry relative="1" as="geometry">
            <Array as="points">
              <mxPoint x="520" y="145" />
              <mxPoint x="448" y="145" />
            </Array>
          </mxGeometry>
        </mxCell>
        <mxCell id="gWbtYYOCCa37OpY_L-de-46" value="&lt;h1 style=&quot;margin-top: 0px;&quot;&gt;WarenWelt Projekt - UML Klassendiagramm&lt;/h1&gt;&lt;p&gt;&lt;br&gt;&lt;/p&gt;" style="text;html=1;whiteSpace=wrap;overflow=hidden;rounded=0;" vertex="1" parent="1">
          <mxGeometry x="407" y="-352" width="583" height="44" as="geometry" />
        </mxCell>
      </root>
    </mxGraphModel>
  </diagram>
</mxfile>
